<svg width="20" height="20" viewBox="0 0 20 20" fill="none" xmlns="http://www.w3.org/2000/svg">
<path d="M14.5308 0.938364C15.782 -0.312787 17.8105 -0.312787 19.0616 0.938364C20.3128 2.18952 20.3128 4.21803 19.0616 5.46918L5.4692 19.0616C4.21805 20.3128 2.18953 20.3128 0.938382 19.0616C-0.312768 17.8105 -0.312768 15.782 0.938382 14.5308L7.7346 7.73459L14.5308 0.938364Z" fill="#30273B"/>
<path d="M0.938362 5.46918C-0.312787 4.21803 -0.312787 2.18951 0.938362 0.938363C2.18951 -0.312788 4.21803 -0.312788 5.46918 0.938363L19.0616 14.5308C20.3128 15.782 20.3128 17.8105 19.0616 19.0616C17.8105 20.3128 15.782 20.3128 14.5308 19.0616L0.938362 5.46918Z" fill="#30273B"/>
</svg>
