<svg width="30" height="23" viewBox="0 0 30 23" fill="none" xmlns="http://www.w3.org/2000/svg">
<path d="M25.0109 1.89028C25.0109 1.89028 29.53 7.1242 29.53 16.5525V18.5293C29.53 18.5293 23.8226 22.2483 22.0835 22.2483L20.3961 19.7949C21.4448 19.3251 22.875 18.5098 22.875 18.5098L22.3522 18.1051C22.3522 18.1051 19.0086 19.6542 14.905 19.6542C10.8015 19.6542 7.45786 18.1051 7.45786 18.1051L6.93501 18.5098C6.93501 18.5098 8.36522 19.3251 9.41395 19.7949L7.72659 22.2483C5.98743 22.2483 0.280029 18.5293 0.280029 18.5293V16.5525C0.280029 7.1242 4.79915 1.89028 4.79915 1.89028C4.79915 1.89028 7.89051 0.393656 10.7448 0L11.6309 1.67883C11.6309 1.67883 13.0385 1.35281 14.905 1.35281C16.7715 1.35281 18.1792 1.67883 18.1792 1.67883L19.0646 0C21.9195 0.393656 25.0109 1.89028 25.0109 1.89028ZM10.0355 15.1747C11.4736 15.1747 12.64 13.8651 12.64 12.249C12.64 10.6336 11.4742 9.32344 10.0355 9.32344C8.59678 9.32344 7.43105 10.633 7.43105 12.249C7.43105 13.8651 8.59678 15.1747 10.0355 15.1747ZM19.7745 15.1747C21.2127 15.1747 22.379 13.8651 22.379 12.249C22.379 10.6336 21.2127 9.32344 19.7745 9.32344C18.3364 9.32344 17.1701 10.633 17.1701 12.249C17.1701 13.8651 18.3364 15.1747 19.7745 15.1747Z" fill="white"/>
</svg>
