<svg width="251" height="86" viewBox="0 0 251 86" fill="none" xmlns="http://www.w3.org/2000/svg">
<path d="M42.7423 44.5253C44.2529 43.6531 46.1141 43.6531 47.6247 44.5253L56.0614 49.3962C57.5721 50.2684 58.5027 51.8802 58.5027 53.6246V63.3665C58.5027 65.1108 57.5721 66.7227 56.0614 67.5948L47.6247 72.4658C46.1141 73.338 44.2529 73.338 42.7423 72.4658L34.3056 67.5948C32.795 66.7227 31.8644 65.1108 31.8644 63.3665V53.6246C31.8644 51.8802 32.795 50.2684 34.3056 49.3962L42.7423 44.5253Z" fill="#30273B"/>
<path d="M42.7423 44.5253C44.2529 43.6531 46.1141 43.6531 47.6247 44.5253L56.0614 49.3962C57.5721 50.2684 58.5027 51.8802 58.5027 53.6246V63.3665C58.5027 65.1108 57.5721 66.7227 56.0614 67.5948L47.6247 72.4658C46.1141 73.338 44.2529 73.338 42.7423 72.4658L34.3056 67.5948C32.795 66.7227 31.8644 65.1108 31.8644 63.3665V53.6246C31.8644 51.8802 32.795 50.2684 34.3056 49.3962L42.7423 44.5253Z" fill="#30273B"/>
<path d="M60.9049 13.7658C62.4155 12.8937 64.2767 12.8937 65.7873 13.7658L74.224 18.6368C75.7347 19.509 76.6652 21.1208 76.6652 22.8651V32.6071C76.6652 34.3514 75.7347 35.9632 74.224 36.8354L65.7873 41.7064C64.2767 42.5785 62.4155 42.5785 60.9049 41.7064L52.4682 36.8354C50.9576 35.9632 50.027 34.3514 50.027 32.6071V22.8651C50.027 21.1208 50.9576 19.509 52.4682 18.6368L60.9049 13.7658Z" fill="#30273B"/>
<path d="M60.9049 13.7658C62.4155 12.8937 64.2767 12.8937 65.7873 13.7658L74.224 18.6368C75.7347 19.509 76.6652 21.1208 76.6652 22.8651V32.6071C76.6652 34.3514 75.7347 35.9632 74.224 36.8354L65.7873 41.7064C64.2767 42.5785 62.4155 42.5785 60.9049 41.7064L52.4682 36.8354C50.9576 35.9632 50.027 34.3514 50.027 32.6071V22.8651C50.027 21.1208 50.9576 19.509 52.4682 18.6368L60.9049 13.7658Z" fill="#30273B"/>
<path d="M24.6774 13.7658C26.188 12.8937 28.0492 12.8937 29.5598 13.7658L37.9965 18.6368C39.5071 19.509 40.4377 21.1208 40.4377 22.8651V32.6071C40.4377 34.3514 39.5071 35.9632 37.9965 36.8354L29.5598 41.7064C28.0492 42.5785 26.188 42.5785 24.6774 41.7064L16.2407 36.8354C14.7301 35.9632 13.7995 34.3514 13.7995 32.6071V22.8651C13.7995 21.1208 14.7301 19.509 16.2407 18.6368L24.6774 13.7658Z" fill="#30273B"/>
<path d="M24.6774 13.7658C26.188 12.8937 28.0492 12.8937 29.5598 13.7658L37.9965 18.6368C39.5071 19.509 40.4377 21.1208 40.4377 22.8651V32.6071C40.4377 34.3514 39.5071 35.9632 37.9965 36.8354L29.5598 41.7064C28.0492 42.5785 26.188 42.5785 24.6774 41.7064L16.2407 36.8354C14.7301 35.9632 13.7995 34.3514 13.7995 32.6071V22.8651C13.7995 21.1208 14.7301 19.509 16.2407 18.6368L24.6774 13.7658Z" fill="#30273B"/>
<path d="M42.7423 44.5253C44.2529 43.6531 46.1141 43.6531 47.6247 44.5253L56.0614 49.3962C57.5721 50.2684 58.5027 51.8802 58.5027 53.6246V63.3665C58.5027 65.1108 57.5721 66.7227 56.0614 67.5948L47.6247 72.4658C46.1141 73.338 44.2529 73.338 42.7423 72.4658L34.3056 67.5948C32.795 66.7227 31.8644 65.1108 31.8644 63.3665V53.6246C31.8644 51.8802 32.795 50.2684 34.3056 49.3962L42.7423 44.5253Z" stroke="#30273B" stroke-width="25.7178" stroke-linecap="round"/>
<path d="M42.7423 44.5253C44.2529 43.6531 46.1141 43.6531 47.6247 44.5253L56.0614 49.3962C57.5721 50.2684 58.5027 51.8802 58.5027 53.6246V63.3665C58.5027 65.1108 57.5721 66.7227 56.0614 67.5948L47.6247 72.4658C46.1141 73.338 44.2529 73.338 42.7423 72.4658L34.3056 67.5948C32.795 66.7227 31.8644 65.1108 31.8644 63.3665V53.6246C31.8644 51.8802 32.795 50.2684 34.3056 49.3962L42.7423 44.5253Z" stroke="#30273B" stroke-width="25.7178" stroke-linecap="round"/>
<path d="M60.9049 13.7658C62.4155 12.8937 64.2767 12.8937 65.7873 13.7658L74.224 18.6368C75.7347 19.509 76.6652 21.1208 76.6652 22.8651V32.6071C76.6652 34.3514 75.7347 35.9632 74.224 36.8354L65.7873 41.7064C64.2767 42.5785 62.4155 42.5785 60.9049 41.7064L52.4682 36.8354C50.9576 35.9632 50.027 34.3514 50.027 32.6071V22.8651C50.027 21.1208 50.9576 19.509 52.4682 18.6368L60.9049 13.7658Z" stroke="#30273B" stroke-width="25.7178" stroke-linecap="round"/>
<path d="M60.9049 13.7658C62.4155 12.8937 64.2767 12.8937 65.7873 13.7658L74.224 18.6368C75.7347 19.509 76.6652 21.1208 76.6652 22.8651V32.6071C76.6652 34.3514 75.7347 35.9632 74.224 36.8354L65.7873 41.7064C64.2767 42.5785 62.4155 42.5785 60.9049 41.7064L52.4682 36.8354C50.9576 35.9632 50.027 34.3514 50.027 32.6071V22.8651C50.027 21.1208 50.9576 19.509 52.4682 18.6368L60.9049 13.7658Z" stroke="#30273B" stroke-width="25.7178" stroke-linecap="round"/>
<path d="M24.6774 13.7658C26.188 12.8937 28.0492 12.8937 29.5598 13.7658L37.9965 18.6368C39.5071 19.509 40.4377 21.1208 40.4377 22.8651V32.6071C40.4377 34.3514 39.5071 35.9632 37.9965 36.8354L29.5598 41.7064C28.0492 42.5785 26.188 42.5785 24.6774 41.7064L16.2407 36.8354C14.7301 35.9632 13.7995 34.3514 13.7995 32.6071V22.8651C13.7995 21.1208 14.7301 19.509 16.2407 18.6368L24.6774 13.7658Z" stroke="#30273B" stroke-width="25.7178" stroke-linecap="round"/>
<path d="M24.6774 13.7658C26.188 12.8937 28.0492 12.8937 29.5598 13.7658L37.9965 18.6368C39.5071 19.509 40.4377 21.1208 40.4377 22.8651V32.6071C40.4377 34.3514 39.5071 35.9632 37.9965 36.8354L29.5598 41.7064C28.0492 42.5785 26.188 42.5785 24.6774 41.7064L16.2407 36.8354C14.7301 35.9632 13.7995 34.3514 13.7995 32.6071V22.8651C13.7995 21.1208 14.7301 19.509 16.2407 18.6368L24.6774 13.7658Z" stroke="#30273B" stroke-width="25.7178" stroke-linecap="round"/>
<path d="M49.754 41.1554C46.9248 39.5219 43.4391 39.5219 40.6099 41.1554L33.007 45.5449C30.1778 47.1783 28.435 50.197 28.435 53.4639V62.2429C28.435 65.5098 30.1778 68.5285 33.007 70.162L40.6099 74.5515C43.4391 76.1849 46.9248 76.1849 49.754 74.5515L57.3568 70.162C60.186 68.5285 61.9289 65.5098 61.9289 62.2429V53.4639C61.9289 50.197 60.186 47.1783 57.3568 45.5449L49.754 41.1554Z" fill="black" stroke="black" stroke-width="6.85808" stroke-linecap="round"/>
<path d="M42.3244 44.125C44.0926 43.1041 46.2712 43.1041 48.0394 44.125L55.6423 48.5145C57.4105 49.5354 58.4998 51.4221 58.4998 53.4639V62.2429C58.4998 64.2847 57.4105 66.1714 55.6423 67.1923L48.0394 71.5818C46.2712 72.6027 44.0926 72.6027 42.3244 71.5818L34.7215 67.1923C32.9533 66.1714 31.864 64.2847 31.864 62.2429V53.4639C31.864 51.4221 32.9533 49.5354 34.7215 48.5145L42.3244 44.125Z" fill="#6475E2" stroke="white" stroke-width="4.00055" stroke-linecap="round"/>
<path d="M68.1944 10.6802C65.3652 9.04672 61.8795 9.04672 59.0503 10.6802L51.4474 15.0697C48.6182 16.7031 46.8754 19.7218 46.8754 22.9887V31.7677C46.8754 35.0346 48.6182 38.0533 51.4474 39.6867L59.0503 44.0762C61.8795 45.7097 65.3652 45.7097 68.1944 44.0762L75.7972 39.6867C78.6264 38.0533 80.3693 35.0346 80.3693 31.7677V22.9887C80.3693 19.7218 78.6264 16.7031 75.7972 15.0697L68.1944 10.6802Z" fill="black" stroke="black" stroke-width="6.85808" stroke-linecap="round"/>
<path d="M60.7648 13.6498C62.5331 12.6289 64.7116 12.6289 66.4799 13.6498L74.0827 18.0393C75.851 19.0602 76.9403 20.9469 76.9403 22.9887V31.7677C76.9403 33.8095 75.851 35.6962 74.0827 36.7171L66.4799 41.1066C64.7116 42.1275 62.5331 42.1275 60.7648 41.1066L53.162 36.7171C51.3937 35.6962 50.3044 33.8095 50.3044 31.7677V22.9887C50.3044 20.9469 51.3937 19.0602 53.162 18.0393L60.7648 13.6498Z" fill="#E26464" stroke="white" stroke-width="4.00055" stroke-linecap="round"/>
<path d="M30.9503 10.6802C28.1211 9.04672 24.6353 9.04672 21.8061 10.6802L14.2033 15.0697C11.3741 16.7031 9.63125 19.7218 9.63125 22.9887V31.7677C9.63125 35.0346 11.3741 38.0533 14.2033 39.6867L21.8061 44.0762C24.6353 45.7097 28.1211 45.7097 30.9503 44.0762L38.5531 39.6867C41.3823 38.0533 43.1252 35.0346 43.1252 31.7677V22.9887C43.1252 19.7218 41.3823 16.7031 38.5531 15.0697L30.9503 10.6802Z" fill="black" stroke="black" stroke-width="6.85808" stroke-linecap="round"/>
<path d="M23.5207 13.6498C25.2889 12.6289 27.4675 12.6289 29.2357 13.6498L36.8386 18.0393C38.6068 19.0602 39.6961 20.9469 39.6961 22.9887V31.7677C39.6961 33.8095 38.6068 35.6962 36.8386 36.7171L29.2357 41.1066C27.4675 42.1275 25.2889 42.1275 23.5207 41.1066L15.9178 36.7171C14.1496 35.6962 13.0603 33.8095 13.0603 31.7677V22.9887C13.0603 20.9469 14.1496 19.0602 15.9178 18.0393L23.5207 13.6498Z" fill="#6DE264" stroke="white" stroke-width="4.00055" stroke-linecap="round"/>
<path d="M99 63V23.0156H106.992V43.0078H117V31.0078H124.992V43.0078H120.984V47.0156H124.992V63H117V51H106.992V63H99Z" fill="#30273B"/>
<path d="M146.016 55.0078V39H136.008V55.0078H146.016ZM132 63V59.0156H128.016V35.0156H132V31.0078H150V35.0156H154.008V59.0156H150V63H132Z" fill="#30273B"/>
<path d="M186 62.9922V31H204V35.0078H207.984V31H222V62.9922H213.984V38.9922H207.984V62.9922H199.992V38.9922H193.992V62.9922H186Z" fill="#30273B"/>
<path d="M225 62.9922V31H250.992V38.9922H232.992V55H250.992V62.9922H225Z" fill="#30273B"/>
<path d="M182.992 62.9844V23H175V42.9922H164.992V30.9922H157V42.9922H161.008V47H157V62.9844H164.992V50.9844H175V62.9844H182.992Z" fill="#30273B"/>
</svg>
