<svg width="29" height="29" viewBox="0 0 29 29" fill="none" xmlns="http://www.w3.org/2000/svg">
<path d="M25.16 0H3.4C1.5232 0 0 1.5232 0 3.4V25.16C0 27.0368 1.5232 28.56 3.4 28.56H25.16C27.0368 28.56 28.56 27.0368 28.56 25.16V3.4C28.56 1.5232 27.0368 0 25.16 0ZM22.9296 19.72L20.3932 19.7132C20.3932 19.7132 20.3388 19.72 20.2504 19.72C20.0464 19.72 19.6248 19.6656 19.1284 19.3256C18.2376 18.7068 17.3876 17.17 16.7144 17.17C16.6668 17.17 16.626 17.1768 16.5852 17.1904C16.0004 17.374 15.8236 17.9588 15.8236 18.6728C15.8236 18.9244 15.6468 19.04 15.1708 19.04H13.8584C12.3896 19.04 10.9684 19.006 9.3704 17.2584C7.0176 14.6812 4.8144 10.098 4.8144 10.098C4.8144 10.098 4.692 9.8328 4.8212 9.6764C4.9436 9.5336 5.2292 9.52 5.338 9.52C5.3652 9.52 5.3788 9.52 5.3788 9.52H8.0988C8.0988 9.52 8.3504 9.5676 8.534 9.7036C8.6904 9.8192 8.772 10.03 8.772 10.03C8.772 10.03 9.2344 10.9276 9.8124 11.9408C10.7848 13.6136 11.3084 14.1712 11.6824 14.1712C11.7436 14.1712 11.8048 14.1576 11.866 14.1236C12.4236 13.8176 12.2604 11.3424 12.2604 11.3424C12.2604 11.3424 12.2672 10.4448 11.9748 10.0504C11.7504 9.7376 11.322 9.6492 11.1316 9.622C10.982 9.6016 11.2268 9.248 11.5532 9.0848C11.9748 8.8808 12.6752 8.84 13.5184 8.84H13.9264C14.722 8.8536 14.7424 8.9352 15.0552 9.01C15.9936 9.2344 15.674 10.1116 15.674 12.2128C15.674 12.886 15.5516 13.8312 16.0344 14.1508C16.0684 14.1712 16.116 14.1848 16.1772 14.1848C16.49 14.1848 17.1632 13.7836 18.2376 11.968C18.836 10.9344 19.2984 9.9076 19.2984 9.9076C19.2984 9.9076 19.4004 9.724 19.5568 9.6288C19.7064 9.5404 19.7064 9.5404 19.9036 9.5404H19.924C20.1416 9.5404 22.304 9.52 22.78 9.52H22.8344C23.29 9.52 23.7048 9.5268 23.7796 9.8056C23.8884 10.2272 23.4464 10.982 22.2836 12.546C20.366 15.1096 20.1484 14.9192 21.7396 16.4016C23.2628 17.816 23.5756 18.5028 23.63 18.5912C24.2624 19.6384 22.9296 19.72 22.9296 19.72Z" fill="white"/>
</svg>
