<svg width="30" height="22" viewBox="0 0 30 22" fill="none" xmlns="http://www.w3.org/2000/svg">
<path d="M28.8052 3.78125C28.5312 2.26929 27.2261 1.16821 25.7114 0.824463C23.4448 0.34375 19.25 0 14.7114 0C10.1755 0 5.91357 0.34375 3.64429 0.824463C2.13232 1.16821 0.824463 2.19946 0.550537 3.78125C0.273926 5.5 0 7.90625 0 11C0 14.0938 0.273926 16.5 0.617676 18.2188C0.894287 19.7307 2.19946 20.8318 3.71143 21.1755C6.11768 21.6562 10.2427 22 14.7812 22C19.3198 22 23.4448 21.6562 25.8511 21.1755C27.363 20.8318 28.6682 19.8005 28.9448 18.2188C29.2188 16.5 29.5625 14.0239 29.6323 11C29.4927 7.90625 29.1489 5.5 28.8052 3.78125ZM11 15.8125V6.1875L19.387 11L11 15.8125Z" fill="white"/>
</svg>
